<mxfile host="Electron" modified="2023-10-11T06:44:25.409Z" agent="Mozilla/5.0 (Windows NT 10.0; Win64; x64) AppleWebKit/537.36 (KHTML, like Gecko) draw.io/21.6.5 Chrome/114.0.5735.243 Electron/25.3.1 Safari/537.36" etag="3n7H7WFSzt3ljwyxNXrG" version="21.6.5" type="device">
  <diagram name="Page-1" id="y4mWA-HeYzaWvu7CdzqG">
    <mxGraphModel dx="1050" dy="621" grid="1" gridSize="5" guides="1" tooltips="1" connect="1" arrows="1" fold="1" page="1" pageScale="1" pageWidth="827" pageHeight="1169" math="0" shadow="0">
      <root>
        <mxCell id="0" />
        <mxCell id="1" parent="0" />
        <mxCell id="vAxRYSpbGjlzIPx5cKzN-1" value="&lt;font style=&quot;font-size: 15px;&quot;&gt;Product&lt;/font&gt;" style="shape=umlFrame;whiteSpace=wrap;html=1;pointerEvents=0;width=106;height=60;" parent="1" vertex="1">
          <mxGeometry x="14" y="220" width="816" height="915" as="geometry" />
        </mxCell>
        <mxCell id="dHtXZSxDoZGKjRGXaI3S-2" style="edgeStyle=orthogonalEdgeStyle;rounded=0;orthogonalLoop=1;jettySize=auto;html=1;exitX=0.5;exitY=1;exitDx=0;exitDy=0;entryX=0.5;entryY=0;entryDx=0;entryDy=0;entryPerimeter=0;" parent="1" edge="1">
          <mxGeometry relative="1" as="geometry">
            <mxPoint x="310.0000000000002" y="295" as="sourcePoint" />
            <mxPoint x="310.0000000000002" y="355" as="targetPoint" />
          </mxGeometry>
        </mxCell>
        <mxCell id="dHtXZSxDoZGKjRGXaI3S-3" style="edgeStyle=orthogonalEdgeStyle;rounded=0;orthogonalLoop=1;jettySize=auto;html=1;exitX=0.5;exitY=1;exitDx=0;exitDy=0;entryX=0.5;entryY=0;entryDx=0;entryDy=0;entryPerimeter=0;" parent="1" edge="1">
          <mxGeometry relative="1" as="geometry">
            <mxPoint x="317.5" y="400.00000000000006" as="sourcePoint" />
            <mxPoint x="312.5000000000002" y="455" as="targetPoint" />
            <Array as="points">
              <mxPoint x="313" y="400" />
              <mxPoint x="313" y="428" />
              <mxPoint x="313" y="428" />
            </Array>
          </mxGeometry>
        </mxCell>
        <mxCell id="dHtXZSxDoZGKjRGXaI3S-29" value="View Category&amp;nbsp;&lt;br&gt;of Products" style="text;html=1;align=center;verticalAlign=middle;resizable=0;points=[];autosize=1;strokeColor=none;fillColor=none;" parent="1" vertex="1">
          <mxGeometry x="305" y="308" width="100" height="40" as="geometry" />
        </mxCell>
        <mxCell id="dHtXZSxDoZGKjRGXaI3S-30" value="View&lt;br&gt;Product" style="text;html=1;align=center;verticalAlign=middle;resizable=0;points=[];autosize=1;strokeColor=none;fillColor=none;" parent="1" vertex="1">
          <mxGeometry x="315" y="415" width="60" height="40" as="geometry" />
        </mxCell>
        <mxCell id="ps9dGn57FndDVON0U3-Q-1" value="" style="ellipse;fillColor=strokeColor;html=1;" parent="1" vertex="1">
          <mxGeometry x="288" y="255" width="44" height="40" as="geometry" />
        </mxCell>
        <mxCell id="ps9dGn57FndDVON0U3-Q-2" value="" style="ellipse;html=1;shape=endState;fillColor=strokeColor;rotation=5;" parent="1" vertex="1">
          <mxGeometry x="356" y="1000" width="57.5" height="55" as="geometry" />
        </mxCell>
        <mxCell id="ps9dGn57FndDVON0U3-Q-3" value="View Category" style="rounded=1;whiteSpace=wrap;html=1;" parent="1" vertex="1">
          <mxGeometry x="255" y="355" width="120" height="45" as="geometry" />
        </mxCell>
        <mxCell id="ps9dGn57FndDVON0U3-Q-4" value="View Product" style="rounded=1;whiteSpace=wrap;html=1;" parent="1" vertex="1">
          <mxGeometry x="254.75" y="455" width="120" height="50" as="geometry" />
        </mxCell>
        <mxCell id="ps9dGn57FndDVON0U3-Q-26" style="edgeStyle=orthogonalEdgeStyle;rounded=0;orthogonalLoop=1;jettySize=auto;html=1;exitX=0.5;exitY=1;exitDx=0;exitDy=0;" parent="1" source="ps9dGn57FndDVON0U3-Q-6" target="ps9dGn57FndDVON0U3-Q-20" edge="1">
          <mxGeometry relative="1" as="geometry" />
        </mxCell>
        <mxCell id="ps9dGn57FndDVON0U3-Q-6" value="Successfully" style="rounded=1;whiteSpace=wrap;html=1;" parent="1" vertex="1">
          <mxGeometry x="675" y="800" width="120" height="45" as="geometry" />
        </mxCell>
        <mxCell id="ps9dGn57FndDVON0U3-Q-22" style="edgeStyle=orthogonalEdgeStyle;rounded=0;orthogonalLoop=1;jettySize=auto;html=1;exitX=0.5;exitY=1;exitDx=0;exitDy=0;entryX=0.5;entryY=0;entryDx=0;entryDy=0;" parent="1" source="ps9dGn57FndDVON0U3-Q-7" target="ps9dGn57FndDVON0U3-Q-2" edge="1">
          <mxGeometry relative="1" as="geometry" />
        </mxCell>
        <mxCell id="ps9dGn57FndDVON0U3-Q-7" value="Cancellation" style="rounded=1;whiteSpace=wrap;html=1;" parent="1" vertex="1">
          <mxGeometry x="425" y="800" width="120" height="45" as="geometry" />
        </mxCell>
        <mxCell id="ps9dGn57FndDVON0U3-Q-8" value="Payment" style="rounded=1;whiteSpace=wrap;html=1;" parent="1" vertex="1">
          <mxGeometry x="570" y="665" width="120" height="45" as="geometry" />
        </mxCell>
        <mxCell id="ps9dGn57FndDVON0U3-Q-34" style="edgeStyle=orthogonalEdgeStyle;rounded=0;orthogonalLoop=1;jettySize=auto;html=1;exitX=1;exitY=0.5;exitDx=0;exitDy=0;entryX=0;entryY=0.5;entryDx=0;entryDy=0;" parent="1" source="ps9dGn57FndDVON0U3-Q-9" target="ps9dGn57FndDVON0U3-Q-8" edge="1">
          <mxGeometry relative="1" as="geometry" />
        </mxCell>
        <mxCell id="ps9dGn57FndDVON0U3-Q-9" value="Contact Details" style="rounded=1;whiteSpace=wrap;html=1;" parent="1" vertex="1">
          <mxGeometry x="284" y="665" width="120" height="45" as="geometry" />
        </mxCell>
        <mxCell id="ps9dGn57FndDVON0U3-Q-11" value="Order Product" style="rounded=1;whiteSpace=wrap;html=1;" parent="1" vertex="1">
          <mxGeometry x="435" y="550" width="120" height="45" as="geometry" />
        </mxCell>
        <mxCell id="ps9dGn57FndDVON0U3-Q-24" style="edgeStyle=orthogonalEdgeStyle;rounded=0;orthogonalLoop=1;jettySize=auto;html=1;exitX=0.5;exitY=1;exitDx=0;exitDy=0;entryX=0.5;entryY=0;entryDx=0;entryDy=0;" parent="1" source="ps9dGn57FndDVON0U3-Q-12" target="ps9dGn57FndDVON0U3-Q-23" edge="1">
          <mxGeometry relative="1" as="geometry" />
        </mxCell>
        <mxCell id="ps9dGn57FndDVON0U3-Q-12" value="Add to Cart" style="rounded=1;whiteSpace=wrap;html=1;" parent="1" vertex="1">
          <mxGeometry x="95" y="550" width="120" height="45" as="geometry" />
        </mxCell>
        <mxCell id="ps9dGn57FndDVON0U3-Q-13" value="" style="endArrow=classic;html=1;rounded=0;exitX=0;exitY=0.5;exitDx=0;exitDy=0;entryX=0.5;entryY=0;entryDx=0;entryDy=0;" parent="1" source="ps9dGn57FndDVON0U3-Q-4" target="ps9dGn57FndDVON0U3-Q-12" edge="1">
          <mxGeometry width="50" height="50" relative="1" as="geometry">
            <mxPoint x="280" y="690" as="sourcePoint" />
            <mxPoint x="330" y="640" as="targetPoint" />
          </mxGeometry>
        </mxCell>
        <mxCell id="ps9dGn57FndDVON0U3-Q-14" value="" style="endArrow=classic;html=1;rounded=0;exitX=1;exitY=0.5;exitDx=0;exitDy=0;entryX=0.5;entryY=0;entryDx=0;entryDy=0;" parent="1" source="ps9dGn57FndDVON0U3-Q-4" target="ps9dGn57FndDVON0U3-Q-11" edge="1">
          <mxGeometry width="50" height="50" relative="1" as="geometry">
            <mxPoint x="280" y="690" as="sourcePoint" />
            <mxPoint x="330" y="640" as="targetPoint" />
          </mxGeometry>
        </mxCell>
        <mxCell id="ps9dGn57FndDVON0U3-Q-15" value="" style="endArrow=classic;html=1;rounded=0;exitX=1;exitY=0.5;exitDx=0;exitDy=0;entryX=0.5;entryY=0;entryDx=0;entryDy=0;" parent="1" source="ps9dGn57FndDVON0U3-Q-11" target="ps9dGn57FndDVON0U3-Q-8" edge="1">
          <mxGeometry width="50" height="50" relative="1" as="geometry">
            <mxPoint x="555" y="570" as="sourcePoint" />
            <mxPoint x="675" y="640" as="targetPoint" />
          </mxGeometry>
        </mxCell>
        <mxCell id="ps9dGn57FndDVON0U3-Q-17" value="" style="endArrow=classic;html=1;rounded=0;exitX=0;exitY=0.5;exitDx=0;exitDy=0;entryX=0.5;entryY=0;entryDx=0;entryDy=0;" parent="1" source="ps9dGn57FndDVON0U3-Q-11" target="ps9dGn57FndDVON0U3-Q-9" edge="1">
          <mxGeometry width="50" height="50" relative="1" as="geometry">
            <mxPoint x="430" y="575" as="sourcePoint" />
            <mxPoint x="330" y="645" as="targetPoint" />
          </mxGeometry>
        </mxCell>
        <mxCell id="ps9dGn57FndDVON0U3-Q-18" value="" style="endArrow=classic;html=1;rounded=0;entryX=0.5;entryY=0;entryDx=0;entryDy=0;exitX=0;exitY=0.5;exitDx=0;exitDy=0;" parent="1" source="ps9dGn57FndDVON0U3-Q-8" target="ps9dGn57FndDVON0U3-Q-7" edge="1">
          <mxGeometry width="50" height="50" relative="1" as="geometry">
            <mxPoint x="350" y="690" as="sourcePoint" />
            <mxPoint x="400" y="640" as="targetPoint" />
          </mxGeometry>
        </mxCell>
        <mxCell id="ps9dGn57FndDVON0U3-Q-19" value="" style="endArrow=classic;html=1;rounded=0;exitX=1;exitY=0.5;exitDx=0;exitDy=0;entryX=0.75;entryY=0;entryDx=0;entryDy=0;" parent="1" source="ps9dGn57FndDVON0U3-Q-8" target="ps9dGn57FndDVON0U3-Q-6" edge="1">
          <mxGeometry width="50" height="50" relative="1" as="geometry">
            <mxPoint x="715" y="690" as="sourcePoint" />
            <mxPoint x="815" y="780" as="targetPoint" />
          </mxGeometry>
        </mxCell>
        <mxCell id="ps9dGn57FndDVON0U3-Q-21" style="edgeStyle=orthogonalEdgeStyle;rounded=0;orthogonalLoop=1;jettySize=auto;html=1;exitX=0;exitY=0.5;exitDx=0;exitDy=0;entryX=1;entryY=0.5;entryDx=0;entryDy=0;" parent="1" source="ps9dGn57FndDVON0U3-Q-20" target="ps9dGn57FndDVON0U3-Q-2" edge="1">
          <mxGeometry relative="1" as="geometry">
            <Array as="points">
              <mxPoint x="680" y="1030" />
            </Array>
          </mxGeometry>
        </mxCell>
        <mxCell id="ps9dGn57FndDVON0U3-Q-20" value="Pace Order" style="rounded=1;whiteSpace=wrap;html=1;" parent="1" vertex="1">
          <mxGeometry x="675" y="1015" width="120" height="45" as="geometry" />
        </mxCell>
        <mxCell id="ps9dGn57FndDVON0U3-Q-25" style="edgeStyle=orthogonalEdgeStyle;rounded=0;orthogonalLoop=1;jettySize=auto;html=1;exitX=0.5;exitY=1;exitDx=0;exitDy=0;entryX=0;entryY=0.5;entryDx=0;entryDy=0;" parent="1" source="ps9dGn57FndDVON0U3-Q-23" target="ps9dGn57FndDVON0U3-Q-2" edge="1">
          <mxGeometry relative="1" as="geometry">
            <Array as="points">
              <mxPoint x="155" y="1025" />
            </Array>
          </mxGeometry>
        </mxCell>
        <mxCell id="ps9dGn57FndDVON0U3-Q-23" value="Cancellation" style="rounded=1;whiteSpace=wrap;html=1;" parent="1" vertex="1">
          <mxGeometry x="95" y="830" width="120" height="50" as="geometry" />
        </mxCell>
        <mxCell id="ps9dGn57FndDVON0U3-Q-27" value="Add Product to Cart" style="text;html=1;align=center;verticalAlign=middle;resizable=0;points=[];autosize=1;strokeColor=none;fillColor=none;rotation=-40;" parent="1" vertex="1">
          <mxGeometry x="125" y="485" width="125" height="30" as="geometry" />
        </mxCell>
        <mxCell id="ps9dGn57FndDVON0U3-Q-28" value="User Cart Other&lt;br&gt;Product" style="text;html=1;align=center;verticalAlign=middle;resizable=0;points=[];autosize=1;strokeColor=none;fillColor=none;rotation=35;" parent="1" vertex="1">
          <mxGeometry x="395" y="465" width="105" height="45" as="geometry" />
        </mxCell>
        <mxCell id="ps9dGn57FndDVON0U3-Q-29" value="Make Payment" style="text;html=1;align=center;verticalAlign=middle;resizable=0;points=[];autosize=1;strokeColor=none;fillColor=none;rotation=50;" parent="1" vertex="1">
          <mxGeometry x="570" y="595" width="100" height="30" as="geometry" />
        </mxCell>
        <mxCell id="ps9dGn57FndDVON0U3-Q-30" value="Other Successful" style="text;html=1;align=center;verticalAlign=middle;resizable=0;points=[];autosize=1;strokeColor=none;fillColor=none;rotation=55;" parent="1" vertex="1">
          <mxGeometry x="695" y="725" width="110" height="30" as="geometry" />
        </mxCell>
        <mxCell id="ps9dGn57FndDVON0U3-Q-31" value="User Succesfully buy Product" style="text;html=1;align=center;verticalAlign=middle;resizable=0;points=[];autosize=1;strokeColor=none;fillColor=none;rotation=90;" parent="1" vertex="1">
          <mxGeometry x="660" y="915" width="180" height="30" as="geometry" />
        </mxCell>
        <mxCell id="ps9dGn57FndDVON0U3-Q-32" value="Cancel Order" style="text;html=1;align=center;verticalAlign=middle;resizable=0;points=[];autosize=1;strokeColor=none;fillColor=none;rotation=-50;" parent="1" vertex="1">
          <mxGeometry x="465" y="725" width="90" height="30" as="geometry" />
        </mxCell>
        <mxCell id="ps9dGn57FndDVON0U3-Q-35" value="Make Payment" style="text;html=1;align=center;verticalAlign=middle;resizable=0;points=[];autosize=1;strokeColor=none;fillColor=none;rotation=0;" parent="1" vertex="1">
          <mxGeometry x="435" y="655" width="100" height="30" as="geometry" />
        </mxCell>
        <mxCell id="ps9dGn57FndDVON0U3-Q-36" value="Add Contact Details" style="text;html=1;align=center;verticalAlign=middle;resizable=0;points=[];autosize=1;strokeColor=none;fillColor=none;rotation=-45;" parent="1" vertex="1">
          <mxGeometry x="310" y="595" width="125" height="30" as="geometry" />
        </mxCell>
        <mxCell id="BoSe89orxpXJtx95gR9r-1" value="Start" style="text;html=1;align=center;verticalAlign=middle;resizable=0;points=[];autosize=1;strokeColor=none;fillColor=none;fontStyle=1;fontSize=15;" vertex="1" parent="1">
          <mxGeometry x="332" y="257.5" width="55" height="35" as="geometry" />
        </mxCell>
        <mxCell id="BoSe89orxpXJtx95gR9r-2" value="Stop" style="text;html=1;align=center;verticalAlign=middle;resizable=0;points=[];autosize=1;strokeColor=none;fillColor=none;fontSize=15;fontStyle=1" vertex="1" parent="1">
          <mxGeometry x="360" y="1055" width="55" height="35" as="geometry" />
        </mxCell>
      </root>
    </mxGraphModel>
  </diagram>
</mxfile>
